<svg id="Layer_1" data-name="Layer 1" xmlns="http://www.w3.org/2000/svg" xmlns:xlink="http://www.w3.org/1999/xlink" viewBox="0 0 728.5 515.91"><defs><style>.cls-1{font-size:32.29px;font-family:SamsungSharpSans-Bold, Samsung Sharp Sans;font-weight:700;}.cls-1,.cls-9{fill:#29abe2;}.cls-2{letter-spacing:-0.01em;}.cls-3{letter-spacing:-0.02em;}.cls-4{letter-spacing:-0.06em;}.cls-5{letter-spacing:0em;}.cls-6{letter-spacing:0em;}.cls-7{letter-spacing:-0.06em;}.cls-8{letter-spacing:-0.06em;}.cls-10{fill:url(#linear-gradient);}.cls-11{fill:url(#linear-gradient-2);}.cls-12{fill:url(#linear-gradient-3);}</style><linearGradient id="linear-gradient" x1="59.7" y1="269.32" x2="-18.74" y2="190.87" gradientTransform="matrix(1, 0, -0.01, 1, 43.5, 0)" gradientUnits="userSpaceOnUse"><stop offset="0.02" stop-color="#2ec5f3"/><stop offset="0.48" stop-color="#29abe2"/><stop offset="0.5" stop-color="#28a9e0"/><stop offset="0.83" stop-color="#0f7bbd"/><stop offset="1" stop-color="#0669b0"/></linearGradient><linearGradient id="linear-gradient-2" x1="12.14" y1="145.21" x2="58.37" y2="239.61" gradientTransform="matrix(1, 0, -0.01, 1, 43.5, 0)" gradientUnits="userSpaceOnUse"><stop offset="0.05" stop-color="#7cd2f6"/><stop offset="1" stop-color="#29abe2"/><stop offset="1" stop-color="#29a7df"/><stop offset="1" stop-color="#299dd7"/><stop offset="1" stop-color="#298aca"/><stop offset="1" stop-color="#2a71b7"/><stop offset="1" stop-color="#2a509f"/><stop offset="1" stop-color="#2a3b8f"/></linearGradient><linearGradient id="linear-gradient-3" x1="-17.85" y1="325.27" x2="113.27" y2="285.8" gradientTransform="matrix(1, 0, -0.01, 1, 43.5, 0)" gradientUnits="userSpaceOnUse"><stop offset="0" stop-color="#29abe2"/><stop offset="0.66" stop-color="#1f9dd8"/><stop offset="1" stop-color="#1894d2"/></linearGradient></defs><title>logo sikap</title><text class="cls-1" transform="translate(29.4 404.3)">Si<tspan class="cls-2" x="25.09" y="0">s</tspan><tspan class="cls-3" x="41.49" y="0">t</tspan><tspan x="53.73" y="0">em A</tspan><tspan class="cls-4" x="136.91" y="0">k</tspan><tspan class="cls-5" x="154.22" y="0">adem</tspan><tspan class="cls-6" x="250.63" y="0">i</tspan><tspan x="257.7" y="0">k </tspan><tspan class="cls-7" x="285.02" y="0">K</tspan><tspan x="303.04" y="0">e</tspan><tspan class="cls-6" x="323.9" y="0">p</tspan><tspan x="345.63" y="0">en</tspan><tspan class="cls-6" x="386.48" y="0">d</tspan><tspan x="408.3" y="0">i</tspan><tspan class="cls-6" x="415.21" y="0">di</tspan><tspan class="cls-8" x="444.11" y="0">k</tspan><tspan class="cls-6" x="461.42" y="0">a</tspan><tspan x="483.25" y="0">n</tspan></text><path class="cls-9" d="M169.76,344.73l1.9-127.94h45.1l-1.9,127.94Z"/><path class="cls-9" d="M245.92,344.73l2.92-196.34h44.33l-1.84,124.27,47.32-55.87h56l-58.43,61.57,61.72,66.37H338.52L291.1,287.86l-.84,56.87Z"/><path class="cls-9" d="M548.81,216.79l-1.9,127.94H505.36l.31-20.77q-9.18,13.31-20.34,19.51t-26,6.2q-25.69,0-40.59-18.74a63.93,63.93,0,0,1-11.06-21.79,93.81,93.81,0,0,1-3.51-28.25q.46-31.41,16.81-49.78t43.29-18.37q14.42,0,24.7,6.23,10.41,6,17.69,18.94l.31-21.12ZM508.09,280.7q.23-15.17-7.61-23.52-8-8.84-21.61-8.84t-21.62,8.59q-8.22,8.85-8.44,23.77t7.74,23.64q7.57,8.48,21.36,8.47t21.81-8.47Q507.86,295.88,508.09,280.7Z"/><path class="cls-9" d="M572.09,401.23l2.73-184.17h41.55l-.32,21.36a64.84,64.84,0,0,1,19.67-19.2,46.58,46.58,0,0,1,24-6.23,62.09,62.09,0,0,1,24.26,4.5,49.58,49.58,0,0,1,18.54,13.62q15.57,18.12,15.09,50-.45,30.66-16.57,49.53A53.94,53.94,0,0,1,682.56,345a55.66,55.66,0,0,1-23.32,4.68q-16.34,0-26.38-5.95Q623.18,338,615,324a71.4,71.4,0,0,1,.87,9.37q.2,3.68.05,13.43l-.81,54.47Zm41.81-120q-.23,14.91,7.61,23.64,7.2,8.47,21.11,8.47t21.61-8.47q7.85-8.85,8.06-23.64.23-15-7.36-23.52t-21.36-8.6q-13.77,0-21.36,8.6Q614.13,266,613.9,281.21Z"/><ellipse class="cls-9" cx="194.9" cy="170.23" rx="22.01" ry="21.68" transform="translate(-63.35 186.72) rotate(-44.79)"/><path class="cls-10" d="M129,293.39c21.51-22.68,4.63-46.7,4.63-46.7q-9.72-10.26-40.51-18.5a8.57,8.57,0,0,0-1.14-.31c-.25,0-.54-.11-.88-.19q-14.27-3.81-19.39-8a14.11,14.11,0,0,1-4.77-11.15,13.39,13.39,0,0,1,5.86-11.15q6-4.42,14.87-4.43c-18.24-1.37-37.79,5.9-50.12,22.16s-6.93,32.31-6.93,32.31q11.09,11.66,38,19,19.78,5.32,25.52,10.26,5.37,5.19,5.23,14.31a17.46,17.46,0,0,1-6.79,13.81q-6.66,5.44-16.65,5.45S107.45,316.07,129,293.39Z"/><path class="cls-11" d="M37.51,215.14C49.84,198.88,69.39,191.61,87.63,193a47.09,47.09,0,0,1,17.78,3.67A65.19,65.19,0,0,1,123,207.8l16.41-36.36A96.87,96.87,0,0,0,113.52,159a94.33,94.33,0,0,0-29-4.18q-28.49,0-46.32,16.85Q20.07,188.41,19.68,215q-.3,20.52,10.9,32.43S25.17,231.4,37.51,215.14Z"/><path class="cls-12" d="M133.59,246.69s16.88,24-4.63,46.7-53,16.89-53,16.89q-10.62,0-21.66-6.33-10.53-6.21-22-19.13L9,322.44q14.87,14.31,30.29,20.77t35.18,6.46q32.17,0,51.95-17.86,19.65-18.1,20.08-47.5a63.58,63.58,0,0,0-3-21.28A44,44,0,0,0,133.59,246.69Z"/></svg>